<svg width="50" height="50" viewBox="0 0 50 50" fill="none" xmlns="http://www.w3.org/2000/svg">
    <rect width="50" height="50" rx="6" fill="#f15b2b"/>
    <g transform="translate(7, 7) scale(0.07)">
        <path d="m139.6 464.9-40.8 6.3 6.3 40.8 40.8-6.3z" style="fill:#fff"/>
        <path d="M286.9 418.6 467 390.9l-6.3-40.8-180.1 27.7z" style="fill:#fff"/>
        <path d="m216.7 387.6 6.3 40.8 40.8-6.2-6.3-40.9z" style="fill:#fff"/>
        <path d="m209.8 495.9-6.3-40.8-40.8 6.3 6.2 40.8z" style="fill:#fff"/>
        <path d="m95.2 448.1 40.8-6.3-6.2-40.8-40.8 6.3z" style="fill:#fff"/>
        <path d="m470.6 414-180.2 27.7 6.3 40.8 180.1-27.7z" style="fill:#fff"/>
        <path d="m226.6 451.5 6.2 40.8 40.8-6.2-6.2-40.9z" style="fill:#fff"/>
        <path d="m159.1 438.3 40.8-6.3-6.2-40.8-40.9 6.3z" style="fill:#fff"/>
        <path d="m85.4 384.2 17.2-2.6L52.4 55l-17.2 2.7z" style="fill:#fff"/>
        <path d="m109.1 380.6 17.2-2.7L72.4 27.3 55.2 30z" style="fill:#fff"/>
        <path d="m149.6 374.3 17.2-2.6L109.6 0 92.4 2.7z" style="fill:#fff"/>
        <path d="m173.2 370.7 17.3-2.7-52.2-338.8-17.2 2.6z" style="fill:#fff"/>
        <path d="m213.2 364.6 17.2-2.7-46.3-301-17.2 2.6z" style="fill:#fff"/>
        <path d="m236.9 360.9 17.2-2.6L206 45.7l-17.2 2.6z" style="fill:#fff"/>
    </g>
</svg>